<?xml version="1.0" encoding="UTF-8" standalone="no"?>
<!-- Created with Inkscape (http://www.inkscape.org/) -->

<svg
   width="297mm"
   height="210mm"
   viewBox="0 0 297 210"
   version="1.1"
   id="svg5"
   xml:space="preserve"
   inkscape:version="1.2.2 (b0a8486541, 2022-12-01)"
   sodipodi:docname="logo_src.svg"
   inkscape:export-filename="logo.png"
   inkscape:export-xdpi="96"
   inkscape:export-ydpi="96"
   xmlns:inkscape="http://www.inkscape.org/namespaces/inkscape"
   xmlns:sodipodi="http://sodipodi.sourceforge.net/DTD/sodipodi-0.dtd"
   xmlns:xlink="http://www.w3.org/1999/xlink"
   xmlns="http://www.w3.org/2000/svg"
   xmlns:svg="http://www.w3.org/2000/svg"><sodipodi:namedview
     id="namedview7"
     pagecolor="#ffffff"
     bordercolor="#000000"
     borderopacity="0.25"
     inkscape:showpageshadow="2"
     inkscape:pageopacity="0.0"
     inkscape:pagecheckerboard="0"
     inkscape:deskcolor="#d1d1d1"
     inkscape:document-units="mm"
     showgrid="false"
     inkscape:zoom="0.93607327"
     inkscape:cx="478.06087"
     inkscape:cy="381.3804"
     inkscape:window-width="1920"
     inkscape:window-height="999"
     inkscape:window-x="0"
     inkscape:window-y="0"
     inkscape:window-maximized="1"
     inkscape:current-layer="layer1" /><defs
     id="defs2"><inkscape:path-effect
       effect="powerclip"
       id="path-effect7215"
       is_visible="true"
       lpeversion="1"
       inverse="true"
       flatten="false"
       hide_clip="false"
       message="Utilise la règle de remplissage « fill-rule: evenodd » de la boîte de dialogue &lt;b&gt;Fond et contour&lt;/b&gt; en l'absence de résultat de mise à plat après une conversion en chemin." /><rect
       x="322.62625"
       y="213.02191"
       width="488.66995"
       height="81.582857"
       id="rect4700" /><rect
       x="556.74689"
       y="128.54212"
       width="442.0094"
       height="73.904235"
       id="rect4644" /><linearGradient
       inkscape:collect="always"
       id="linearGradient4408"><stop
         style="stop-color:#3c3390;stop-opacity:1;"
         offset="0.28217819"
         id="stop4402" /><stop
         style="stop-color:#0f0627;stop-opacity:1;"
         offset="0.79702967"
         id="stop4406" /></linearGradient><linearGradient
       inkscape:collect="always"
       id="linearGradient4396"><stop
         style="stop-color:#132015;stop-opacity:1;"
         offset="0"
         id="stop4390" /><stop
         style="stop-color:#243d2d;stop-opacity:1;"
         offset="0.28712872"
         id="stop4392" /><stop
         style="stop-color:#373d29;stop-opacity:1;"
         offset="0.50247526"
         id="stop4398" /><stop
         style="stop-color:#465e42;stop-opacity:1;"
         offset="0.65594059"
         id="stop4400" /><stop
         style="stop-color:#87713c;stop-opacity:1;"
         offset="0.80693066"
         id="stop4394" /></linearGradient><linearGradient
       inkscape:collect="always"
       id="linearGradient4388"><stop
         style="stop-color:#760808;stop-opacity:1;"
         offset="0.32425743"
         id="stop4382" /><stop
         style="stop-color:#000000;stop-opacity:1;"
         offset="0.96534652"
         id="stop4386" /></linearGradient><linearGradient
       inkscape:collect="always"
       id="linearGradient4380"><stop
         style="stop-color:#3a2070;stop-opacity:1;"
         offset="0.2970297"
         id="stop4374" /><stop
         style="stop-color:#b0683d;stop-opacity:1;"
         offset="0.75990099"
         id="stop4378" /></linearGradient><linearGradient
       inkscape:collect="always"
       id="linearGradient3910"><stop
         style="stop-color:#1b6fb4;stop-opacity:1;"
         offset="0"
         id="stop3906" /><stop
         style="stop-color:#7e39bf;stop-opacity:1;"
         offset="0.46039602"
         id="stop4052" /><stop
         style="stop-color:#3d16b2;stop-opacity:1;"
         offset="1"
         id="stop3908" /></linearGradient><linearGradient
       inkscape:collect="always"
       xlink:href="#linearGradient3910"
       id="linearGradient3912"
       x1="72.697586"
       y1="73.545547"
       x2="116.93269"
       y2="117.78065"
       gradientUnits="userSpaceOnUse"
       gradientTransform="translate(53.68486,9.3368988)" /><linearGradient
       inkscape:collect="always"
       xlink:href="#linearGradient4380"
       id="linearGradient4224"
       gradientUnits="userSpaceOnUse"
       x1="72.697586"
       y1="73.545547"
       x2="116.93269"
       y2="117.78065"
       gradientTransform="matrix(0.89156191,0,0,0.89156191,12.122357,19.710423)" /><linearGradient
       inkscape:collect="always"
       xlink:href="#linearGradient4396"
       id="linearGradient4273"
       gradientUnits="userSpaceOnUse"
       gradientTransform="matrix(0.89156191,0,0,0.89156191,115.9813,19.710419)"
       x1="87.598022"
       y1="73.862579"
       x2="105.51959"
       y2="119.99986" /><linearGradient
       inkscape:collect="always"
       xlink:href="#linearGradient4388"
       id="linearGradient4322"
       gradientUnits="userSpaceOnUse"
       gradientTransform="matrix(0.76505081,0,0,0.76505081,-25.328164,31.812863)"
       x1="72.697601"
       y1="117.78065"
       x2="116.9327"
       y2="73.545555" /><linearGradient
       inkscape:collect="always"
       xlink:href="#linearGradient4408"
       id="linearGradient4371"
       gradientUnits="userSpaceOnUse"
       gradientTransform="matrix(0.76505081,0,0,0.76505081,174.79482,31.81286)"
       x1="72.697594"
       y1="117.78066"
       x2="116.93269"
       y2="73.545563" /><clipPath
       clipPathUnits="userSpaceOnUse"
       id="clipPath7211"><circle
         style="display:none;opacity:1;fill:#ffffff;fill-opacity:1;stroke-width:0.264583"
         id="circle7213"
         r="22.824181"
         cy="105"
         cx="148.5"
         d="M 171.32418,105 A 22.824181,22.824181 0 0 1 148.5,127.82418 22.824181,22.824181 0 0 1 125.67582,105 22.824181,22.824181 0 0 1 148.5,82.175819 22.824181,22.824181 0 0 1 171.32418,105 Z" /><path
         id="lpe_path-effect7215"
         style="opacity:1;fill:#ffffff;fill-opacity:1;stroke-width:0.264583"
         class="powerclip"
         d="m 118.5,75 h 60 v 60 h -60 z m 52.82418,30 A 22.824181,22.824181 0 0 0 148.5,82.175819 22.824181,22.824181 0 0 0 125.67582,105 22.824181,22.824181 0 0 0 148.5,127.82418 22.824181,22.824181 0 0 0 171.32418,105 Z" /></clipPath><filter
       style="color-interpolation-filters:sRGB;"
       inkscape:label="Drop Shadow"
       id="filter7842"
       x="-0.72009525"
       y="-0.72009525"
       width="2.4401905"
       height="2.4401905"><feFlood
         flood-opacity="0.498039"
         flood-color="rgb(0,0,0)"
         result="flood"
         id="feFlood7832" /><feComposite
         in="SourceGraphic"
         in2="flood"
         operator="in"
         result="composite1"
         id="feComposite7834" /><feGaussianBlur
         in="composite1"
         stdDeviation="13.272285"
         result="blur"
         id="feGaussianBlur7836" /><feOffset
         dx="0"
         dy="0"
         result="offset"
         id="feOffset7838" /><feComposite
         in="SourceGraphic"
         in2="offset"
         operator="over"
         result="composite2"
         id="feComposite7840" /></filter></defs><g
     inkscape:label="Calque 1"
     inkscape:groupmode="layer"
     id="layer1"><path
       style="opacity:1;fill:#5765f2;fill-opacity:1;stroke-width:0.310169"
       id="path1051"
       clip-path="url(#clipPath7211)"
       inkscape:path-effect="#path-effect7215"
       sodipodi:type="arc"
       sodipodi:cx="148.5"
       sodipodi:cy="105"
       sodipodi:rx="25"
       sodipodi:ry="25"
       d="m 173.5,105 a 25,25 0 0 1 -25,25 25,25 0 0 1 -25,-25 25,25 0 0 1 25,-25 25,25 0 0 1 25,25 z" /><circle
       style="fill:url(#linearGradient3912);fill-opacity:1;stroke-width:0.256;stroke-dasharray:none;filter:url(#filter7842);opacity:1"
       id="path3830-3"
       cx="148.5"
       cy="105"
       r="22.11755" /><circle
       style="fill:url(#linearGradient4224);fill-opacity:1;stroke-width:0.228589"
       id="path3830-3-3"
       cx="96.65593"
       cy="105"
       r="19.719166" /><circle
       style="fill:url(#linearGradient4322);fill-opacity:1;stroke-width:0.196153"
       id="path3830-3-3-0"
       cx="47.210243"
       cy="105"
       r="16.921049" /><circle
       style="fill:url(#linearGradient4371);fill-opacity:1;stroke-width:0.196153"
       id="path3830-3-3-0-0"
       cx="247.33322"
       cy="105"
       r="16.921049" /><circle
       style="fill:url(#linearGradient4273);fill-opacity:1;stroke-width:0.228589"
       id="path3830-3-3-9"
       cx="200.51486"
       cy="105"
       r="19.719166" /><g
       id="g3838"
       transform="translate(53.68486,9.3368988)"><circle
         style="opacity:1;fill:#5765f2;fill-opacity:1;stroke-width:0.264583"
         id="path3089"
         cx="113.97957"
         cy="80.767914"
         r="6.0063629" /><path
         d="m 112.6763,83.617331 q -0.0767,0 -0.14055,-0.02556 -0.0639,-0.02556 -0.12778,-0.08944 l -2.31275,-2.312754 q -0.11506,-0.115001 -0.11506,-0.28111 0,-0.166108 0.11506,-0.281108 0.11494,-0.115 0.26832,-0.115 0.15335,0 0.26833,0.115 l 2.04443,2.044424 4.63829,-4.638286 q 0.11493,-0.115001 0.27472,-0.115001 0.15972,0 0.27472,0.115001 0.11494,0.115 0.11494,0.274719 0,0.159721 -0.11494,0.274721 l -4.9194,4.919393 q -0.0638,0.06389 -0.12777,0.08944 -0.0638,0.02556 -0.14056,0.02556 z"
         id="path3145"
         style="fill:#ffffff;fill-opacity:1;stroke-width:0.0127777" /></g><g
       id="g6644"
       transform="translate(1.5029009,8.0717515)"><g
         style="fill:#5a2a8c;fill-opacity:1"
         id="g4588"
         transform="matrix(0.79951651,0,0,0.79951651,55.094284,34.678319)"><path
           d="m 88.6365,0.393555 h -12.168 c -0.3106,0 -0.5822,0.233918 -0.6211,0.545809 L 75.2652,4.99395 c -0.0582,0.37037 0.2329,0.72124 0.6211,0.72124 h 2.2317 c 0.2329,0 0.3688,0.23392 0.2911,0.42885 -0.2717,0.64328 -0.4851,1.36453 -0.5822,2.12476 l -1.1256,7.8558 c -0.7374,5.2631 3.6097,7.8752 8.3643,7.8752 4.9681,0 9.8586,-2.6316 10.5961,-7.8752 L 96.7873,8.2688 C 97.4859,3.1226 93.2747,0.510514 88.6365,0.393555 Z m 2.3288,7.894735 -1.1256,7.68031 c -0.2523,1.8129 -2.29,2.6511 -4.1725,2.6511 -1.7466,0 -3.4544,-0.8382 -3.2215,-2.4951 l 1.1256,-7.8558 c 0.2523,-1.7154 2.29,-2.59259 4.1725,-2.59259 1.8824,0 3.4932,0.87719 3.2215,2.61208 z"
           fill="#ffffff"
           id="path4567"
           style="fill:#5a2a8c;fill-opacity:1" /><path
           d="m 21.1203,0.393555 h -4.5412 c -0.3105,0 -0.5822,0.233918 -0.621,0.545809 L 14.5608,10.9394 v 0.0195 l 0.0582,3.8596 c 0,0.078 -0.0582,0.156 -0.1358,0.1754 L 13.1829,10.3351 V 10.3156 L 9.1269,0.783418 C 9.02987,0.5495 8.79699,0.393555 8.5447,0.393555 H 3.94531 c -0.31051,0 -0.5822,0.233918 -0.62102,0.545809 L 0.258032,22.9667 c -0.05822,0.3898 0.252287,0.7212 0.621015,0.7212 H 5.45903 c 0.31051,0 0.5822,-0.2339 0.62102,-0.5458 L 7.28326,14.3897 V 14.3702 L 7.22504,9.88673 7.36089,9.84775 8.73877,14.5066 v 0.0195 l 3.78433,8.7914 c 0.097,0.234 0.3299,0.3899 0.5822,0.3899 h 4.9681 c 0.3105,0 0.5822,-0.2339 0.621,-0.5458 L 21.7607,1.1343 C 21.8189,0.744433 21.5084,0.393555 21.1203,0.393555 Z"
           fill="#ffffff"
           id="path4569"
           style="fill:#5a2a8c;fill-opacity:1" /><path
           d="m 31.0565,0.393555 h -4.5799 c -0.3105,0 -0.5822,0.233918 -0.6211,0.545809 L 22.7893,22.9472 c -0.0582,0.3898 0.2523,0.7212 0.621,0.7212 h 4.58 c 0.3105,0 0.5822,-0.2339 0.621,-0.5458 L 31.6776,1.1148 C 31.7358,0.744433 31.4447,0.393555 31.0565,0.393555 Z"
           fill="#ffffff"
           id="path4571"
           style="fill:#5a2a8c;fill-opacity:1" /><path
           d="M 52.5395,0.393555 H 35.4034 c -0.3105,0 -0.5822,0.233918 -0.621,0.545809 L 34.1808,5.05242 c -0.0582,0.38987 0.2329,0.72125 0.621,0.72125 h 4.7934 c 0.3882,0 0.6793,0.33139 0.6211,0.72125 L 37.9651,22.9472 c -0.0582,0.3898 0.2523,0.7212 0.621,0.7212 h 4.6382 c 0.3105,0 0.5822,-0.2339 0.621,-0.5458 L 46.1547,6.31948 c 0.0388,-0.31189 0.3105,-0.54581 0.621,-0.54581 h 5.1428 c 0.3105,0 0.5822,-0.23392 0.621,-0.54581 L 53.1411,1.1148 C 53.2382,0.744433 52.9277,0.393555 52.5395,0.393555 Z"
           fill="#ffffff"
           id="path4573"
           style="fill:#5a2a8c;fill-opacity:1" /><path
           d="m 65.6394,0.393555 h -8.7136 c -0.3105,0 -0.5822,0.233918 -0.621,0.545809 L 53.2385,22.9472 c -0.0582,0.3898 0.2523,0.7212 0.621,0.7212 h 4.6382 c 0.3105,0 0.5822,-0.2339 0.621,-0.5458 l 0.8927,-6.5692 c 0.0195,-0.1559 0.1553,-0.2729 0.3106,-0.2729 h 0.6016 c 0.1164,0 0.2134,0.0585 0.2717,0.1559 l 4.4247,6.9591 c 0.1164,0.1754 0.3105,0.2924 0.5434,0.2924 h 5.7444 c 0.5045,0 0.815,-0.5848 0.5239,-0.9941 l -4.6576,-6.6862 c -0.1164,-0.156 -0.0582,-0.3899 0.1165,-0.4678 2.9692,-1.462 4.6964,-2.9435 5.2592,-7.11505 0.6598,-5.45809 -2.7364,-8.031195 -7.5104,-8.031195 z m 1.5913,8.128655 c -0.1552,1.34503 -1.2032,2.69009 -3.008,2.69009 h -2.6975 c -0.3882,0 -0.6793,-0.3509 -0.621,-0.7213 l 0.5822,-4.05456 c 0.0388,-0.31189 0.3105,-0.54581 0.621,-0.54581 h 2.8916 c 1.7078,0 2.4064,1.22807 2.2317,2.63158 z"
           fill="#ffffff"
           id="path4575"
           style="fill:#5a2a8c;fill-opacity:1" /></g><text
         xml:space="preserve"
         transform="matrix(0.74075091,0,0,0.74075091,-265.55246,-62.896247)"
         id="text4642"
         style="font-weight:500;font-size:32px;font-family:'Google Sans';-inkscape-font-specification:'Google Sans Medium';white-space:pre;shape-inside:url(#rect4644);display:inline;opacity:1;fill:#5a2a8c;fill-opacity:1"><tspan
           x="556.74609"
           y="157.22137"
           id="tspan12260"><tspan
             style="font-weight:normal;font-family:'Eras Bold ITC';-inkscape-font-specification:'Eras Bold ITC'"
             id="tspan12258">Themes</tspan></tspan></text></g><text
       xml:space="preserve"
       transform="matrix(0.26458333,0,0,0.26458333,30.765996,88.582989)"
       id="text4698"
       style="font-style:normal;font-variant:normal;font-weight:normal;font-stretch:normal;font-size:48px;font-family:'Eras Bold ITC';-inkscape-font-specification:'Eras Bold ITC';white-space:pre;shape-inside:url(#rect4700);display:inline;opacity:1;fill:#5a2a8c;fill-opacity:1"><tspan
         x="322.62695"
         y="256.94794"
         id="tspan12264"><tspan
           style="font-family:Comfortaa;-inkscape-font-specification:Comfortaa"
           id="tspan12262">ReVanced</tspan></tspan></text></g></svg>
